<svg width="32" height="32" viewBox="0 0 32 32" fill="none" xmlns="http://www.w3.org/2000/svg">
<path d="M20.992 20.1631C19.481 20.0641 18.293 18.8141 18.293 17.2861C18.293 17.2351 18.294 17.1841 18.297 17.1331V17.1401C18.294 17.0921 18.292 17.0361 18.292 16.9791C18.292 15.4541 19.482 14.2081 20.984 14.1171H20.992C22.501 14.1991 23.693 15.4421 23.693 16.9641C23.693 17.0261 23.691 17.0871 23.687 17.1481V17.1401C23.69 17.1901 23.692 17.2491 23.692 17.3081C23.692 18.8311 22.501 20.0761 20.999 20.1621H20.991L20.992 20.1631ZM11.026 20.1631C9.51505 20.0641 8.32705 18.8141 8.32705 17.2861C8.32705 17.2351 8.32805 17.1841 8.33105 17.1331V17.1401C8.32805 17.0921 8.32605 17.0361 8.32605 16.9791C8.32605 15.4541 9.51605 14.2081 11.018 14.1171H11.026C12.535 14.1991 13.727 15.4421 13.727 16.9641C13.727 17.0261 13.725 17.0871 13.721 17.1481V17.1401C13.724 17.1881 13.726 17.2441 13.726 17.3011C13.726 18.8261 12.536 20.0721 11.034 20.1631H11.026ZM26.393 6.46506C24.63 5.63306 22.582 4.97506 20.438 4.59406L20.289 4.57206C20.284 4.57106 20.278 4.57006 20.272 4.57006C20.237 4.57006 20.207 4.58906 20.191 4.61706C19.957 5.02806 19.703 5.54106 19.474 6.06706L19.431 6.17806C18.401 6.01306 17.213 5.91906 16.003 5.91906C14.793 5.91906 13.605 6.01306 12.446 6.19406L12.575 6.17706C12.305 5.54706 12.047 5.03506 11.762 4.53906L11.803 4.61606C11.786 4.58706 11.755 4.56906 11.72 4.56906C11.715 4.56906 11.709 4.56906 11.704 4.57006C9.41105 4.97306 7.36305 5.63006 5.44905 6.52706L5.60005 6.46306C5.58305 6.47006 5.56905 6.48206 5.56005 6.49706C2.70605 10.5381 0.998047 15.5661 0.998047 20.9931C0.998047 21.9001 1.04605 22.7951 1.13905 23.6771L1.13005 23.5671C1.13305 23.5961 1.14805 23.6201 1.16905 23.6371C3.30905 25.2381 5.79705 26.5281 8.48205 27.3751L8.65805 27.4231C8.66605 27.4261 8.67605 27.4271 8.68605 27.4271C8.71805 27.4271 8.74605 27.4121 8.76305 27.3891C9.29805 26.6691 9.80705 25.8531 10.248 24.9971L10.295 24.8971C10.301 24.8851 10.305 24.8701 10.305 24.8541C10.305 24.8131 10.279 24.7791 10.243 24.7651H10.242C9.33005 24.4131 8.55905 24.0381 7.82505 23.6081L7.90205 23.6501C7.87305 23.6331 7.85405 23.6021 7.85405 23.5671C7.85405 23.5361 7.86905 23.5081 7.89205 23.4911C8.04905 23.3731 8.20705 23.2511 8.35705 23.1271C8.37305 23.1141 8.39405 23.1061 8.41605 23.1061C8.43005 23.1061 8.44305 23.1091 8.45405 23.1141H8.45305C10.661 24.1751 13.253 24.7951 15.989 24.7951C18.725 24.7951 21.318 24.1751 23.632 23.0681L23.525 23.1141C23.537 23.1081 23.55 23.1051 23.565 23.1051C23.587 23.1051 23.608 23.1131 23.624 23.1261C23.774 23.2501 23.931 23.3741 24.09 23.4911C24.113 23.5091 24.128 23.5371 24.128 23.5681C24.128 23.6031 24.109 23.6331 24.082 23.6501C23.421 24.0451 22.65 24.4191 21.847 24.7281L21.742 24.7641C21.706 24.7781 21.68 24.8131 21.68 24.8531C21.68 24.8691 21.684 24.8841 21.691 24.8971C22.192 25.8571 22.7 26.6711 23.262 27.4441L23.222 27.3871C23.239 27.4111 23.268 27.4271 23.299 27.4271C23.309 27.4271 23.319 27.4251 23.328 27.4231C26.193 26.5311 28.685 25.2411 30.893 23.5911L30.828 23.6381C30.85 23.6221 30.864 23.5971 30.867 23.5691C30.954 22.7851 31.003 21.8751 31.003 20.9541C31.003 15.5391 29.291 10.5241 26.38 6.42006L26.432 6.49806C26.424 6.48206 26.41 6.46906 26.394 6.46206L26.393 6.46506Z" fill="white"/>
</svg>
