<svg width="210" height="23" viewBox="0 0 210 23" fill="none" xmlns="http://www.w3.org/2000/svg">
<path d="M51.3607 22.9758C43.5375 22.9758 37.1297 18.2938 36.7723 12.3173C36.5872 9.21878 37.9727 6.28 40.6753 4.04302C43.3794 1.80491 47.0233 0.572266 50.9392 0.572266H63.6423C64.4582 0.572266 65.1218 1.09636 65.1218 1.7408V2.44035C65.1218 3.08479 64.4582 3.60889 63.6423 3.60889H50.9392C48.0927 3.60889 45.3416 4.55249 43.3908 6.1979C41.4144 7.86579 40.4318 10.042 40.6241 12.3274C40.9829 16.5955 45.6606 19.9392 51.2753 19.9392H63.6409C64.4568 19.9392 65.1204 20.4633 65.1204 21.1077V21.8062C65.1204 22.4506 64.4568 22.9747 63.6409 22.9747H51.3607V22.9758Z" fill="white"/>
<path d="M122.447 22.9694C121.099 22.9694 119.8 22.7309 118.591 22.2597C116.845 21.5894 115.431 20.4681 114.607 19.1027C113.993 18.1468 113.686 17.1244 113.686 16.0504V1.75008C113.686 1.10564 114.349 0.581543 115.165 0.581543H116.049C116.865 0.581543 117.529 1.10564 117.529 1.75008V16.5092L117.534 16.5475C117.826 18.3087 119.588 19.6999 121.818 19.9305L121.865 19.935H135.341C136.157 19.935 136.821 20.4591 136.821 21.1035V21.802C136.821 22.4464 136.157 22.9705 135.341 22.9705H122.444L122.447 22.9694Z" fill="white"/>
<path d="M3.32262 22.9694C2.5067 22.9694 1.84314 22.4453 1.84314 21.8008V21.1024C1.84314 20.458 2.5067 19.9339 3.32262 19.9339H23.1056C24.5737 19.9339 25.9493 19.4176 26.8805 18.5156C27.8033 17.6227 28.1621 16.4564 27.8673 15.3148C27.4117 13.5558 25.3612 12.2793 22.9917 12.2793H7.95617C6.0495 12.2793 4.25532 11.7069 2.90683 10.6677C2.52236 10.3775 2.21479 10.0907 1.96417 9.7859C1.09841 8.80744 0.648438 7.67488 0.648438 6.49285V6.35339C0.648438 3.17055 3.92638 0.581543 7.95617 0.581543H28.4156C29.2315 0.581543 29.895 1.10564 29.895 1.75008V2.46313C29.895 3.10757 29.2315 3.63167 28.4156 3.63167H7.9576C6.04807 3.63167 4.49312 4.85869 4.49312 6.36801V6.49397C4.49312 8.00216 6.04665 9.22919 7.9576 9.22919H23.1071C25.5491 9.22919 27.8873 10.0468 29.5248 11.474L29.5533 11.4988L29.5846 11.5213C29.6686 11.5786 29.7455 11.6596 29.8338 11.753C31.3817 13.2544 32.0523 15.118 31.7391 17.0198C31.1809 20.413 27.3447 22.9716 22.818 22.9716H3.32262V22.9694Z" fill="white"/>
<path d="M143.352 23.0001C142.834 23.0001 142.361 22.7909 142.09 22.4423C141.823 22.097 141.799 21.6753 142.026 21.3131L156.733 1.18813C156.991 0.787747 157.483 0.549316 158.052 0.549316C158.62 0.549316 159.112 0.787747 159.37 1.18813L174.078 21.3131C174.305 21.6753 174.282 22.097 174.014 22.4423C173.744 22.7909 173.272 23.0001 172.754 23.0001L171.684 22.9967C171.155 22.9945 170.537 22.5772 169.989 21.8507L158.053 5.26959L146.186 21.7596C145.347 23.0001 144.871 23.0001 144.413 23.0001H143.353H143.352Z" fill="white"/>
<path d="M205.447 22.9765C204.889 22.9765 204.384 22.7324 204.13 22.3399L204.102 22.2972L196.677 14.4177C195.588 13.0163 193.62 12.1469 191.531 12.1469H179.628C178.811 12.1469 178.146 11.6217 178.146 10.9762V10.2822C178.146 9.63666 178.811 9.11144 179.628 9.11144H202.044C202.578 9.11144 203.049 9.02709 203.488 8.85501C204.704 8.42651 205.507 7.44467 205.507 6.36161C205.507 5.65081 205.147 4.95801 204.492 4.41029L204.463 4.3878C203.787 3.88057 202.95 3.6129 202.043 3.6129H179.627C178.81 3.6129 178.145 3.08767 178.145 2.44211V1.74818C178.145 1.10261 178.81 0.577393 179.627 0.577393H202.043C203.994 0.577393 205.829 1.17797 207.21 2.2689C208.59 3.37221 209.351 4.82755 209.351 6.36386C209.351 8.70993 207.643 10.8209 205.101 11.6183C203.581 12.0952 201.318 12.1188 200.879 12.1188H200.738L199.253 12.0941L207.791 21.3198C208.001 21.6763 207.972 22.0857 207.71 22.4231C207.438 22.7718 206.967 22.981 206.448 22.981H205.445L205.447 22.9765Z" fill="white"/>
<path d="M75.0334 22.9996C74.5023 22.9996 74.0182 22.786 73.7405 22.4283C73.4657 22.074 73.4415 21.6422 73.675 21.271L88.7419 0.653437C89.0053 0.244055 89.5108 0 90.0932 0C90.6756 0 91.1797 0.244055 91.4445 0.653437L106.511 21.271C106.743 21.6422 106.719 22.074 106.446 22.4272C106.168 22.7848 105.685 22.9985 105.154 22.9985L104.058 22.9952C103.515 22.9929 102.883 22.5655 102.321 21.821L90.0918 4.83499L77.934 21.7288C77.074 22.9996 76.5884 22.9996 76.1171 22.9996H75.032H75.0334Z" fill="white"/>
<path d="M84.7917 3.76236L83.1428 4.5575C81.6747 5.26493 80.4202 5.98359 79.3067 6.7495C75.9803 8.95612 73.1253 12.5213 74.2388 15.5119L74.2659 15.5883L72.3193 18.0997L72.1371 17.8197C71.8138 17.3192 71.5689 16.7895 71.4137 16.244C69.937 10.7916 76.2608 5.98922 82.9563 4.24147L84.7917 3.76123V3.76236Z" fill="white"/>
<path d="M107.845 10.0837C107.702 13.2845 105.269 16.4257 100.998 18.9338C100.377 19.2982 99.7295 19.6412 99.0688 19.9561C97.7602 20.5724 96.3818 21.101 94.9764 21.5363C91.8906 22.4889 88.7067 22.9691 85.6067 22.9691C84.2853 22.9691 82.981 22.8814 81.7008 22.7059L81.1953 22.6396L83.1547 20.0202L83.2971 20.0303C86.6277 20.2901 90.4496 19.8346 94.055 18.7549C95.2127 18.4085 96.3077 18.0093 97.3102 17.5673C98.2457 17.1534 99.1243 16.7024 99.9303 16.2188C102.108 14.9265 104.803 12.7863 105.291 9.95321C105.86 6.1563 101.514 3.80685 97.2618 2.879L95.2925 2.44824L97.3316 2.53596C100.117 2.65181 102.706 3.39747 104.617 4.62674C106.771 6.01347 107.885 7.9018 107.845 10.0837Z" fill="white"/>
</svg>
